<svg width="1071" height="200" viewBox="0 0 1071 200" fill="none" xmlns="http://www.w3.org/2000/svg">
<g filter="url(#filter0_d_5_44)">
<rect x="4" width="192" height="192" rx="30" fill="black"/>
<rect x="8" y="4" width="184" height="184" rx="26" stroke="#00FF00" stroke-width="8"/>
</g>
<path d="M129.323 96.6553L68 72.627V55L147.229 90.0684V103.613L68 138.774V120.962L129.323 96.6553Z" fill="#00FF00"/>
<path d="M336.23 49.7V142H318.42V102.61H276.56V142H258.62V49.7H276.56V87.01H318.42V49.7H336.23ZM348.354 121.85C348.354 117.43 349.567 113.573 351.994 110.28C354.507 106.9 357.974 104.3 362.394 102.48C366.814 100.66 371.884 99.75 377.604 99.75C380.464 99.75 383.367 100.01 386.314 100.53C389.26 100.963 391.817 101.613 393.984 102.48V98.84C393.984 94.5067 392.684 91.17 390.084 88.83C387.57 86.49 383.8 85.32 378.774 85.32C375.047 85.32 371.494 85.97 368.114 87.27C364.734 88.57 361.18 90.4767 357.454 92.99L351.864 81.55C356.37 78.6033 360.964 76.3933 365.644 74.92C370.41 73.4467 375.394 72.71 380.594 72.71C390.3 72.71 397.84 75.1367 403.214 79.99C408.674 84.8433 411.404 91.7767 411.404 100.79V122.5C411.404 124.407 411.707 125.75 412.314 126.53C412.92 127.223 414.004 127.657 415.564 127.83V142C414.004 142.347 412.574 142.563 411.274 142.65C410.06 142.823 409.02 142.91 408.154 142.91C404.687 142.91 402.044 142.13 400.224 140.57C398.404 139.01 397.32 137.103 396.974 134.85L396.584 131.34C393.55 135.24 389.824 138.23 385.404 140.31C381.07 142.303 376.607 143.3 372.014 143.3C367.42 143.3 363.347 142.39 359.794 140.57C356.24 138.663 353.424 136.107 351.344 132.9C349.35 129.607 348.354 125.923 348.354 121.85ZM390.734 125.36C392.9 123.28 393.984 121.287 393.984 119.38V112.49C389.477 110.67 384.927 109.76 380.334 109.76C375.74 109.76 372.014 110.757 369.154 112.75C366.294 114.657 364.864 117.213 364.864 120.42C364.864 123.02 365.904 125.36 367.984 127.44C370.064 129.52 373.054 130.56 376.954 130.56C379.554 130.56 382.067 130.083 384.494 129.13C387.007 128.177 389.087 126.92 390.734 125.36ZM459.402 143.3C452.035 143.3 445.665 141.653 440.292 138.36C434.919 135.067 430.759 130.733 427.812 125.36C424.865 119.987 423.392 114.18 423.392 107.94C423.392 101.613 424.822 95.7633 427.682 90.39C430.629 85.0167 434.789 80.7267 440.162 77.52C445.535 74.3133 451.905 72.71 459.272 72.71C466.725 72.71 473.052 74.3133 478.252 77.52C483.539 80.7267 487.482 84.93 490.082 90.13L473.052 95.33C470.019 90.13 465.382 87.53 459.142 87.53C455.762 87.53 452.729 88.3967 450.042 90.13C447.355 91.7767 445.232 94.16 443.672 97.28C442.112 100.313 441.332 103.867 441.332 107.94C441.332 111.927 442.112 115.48 443.672 118.6C445.319 121.633 447.485 124.06 450.172 125.88C452.859 127.613 455.849 128.48 459.142 128.48C462.262 128.48 465.122 127.743 467.722 126.27C470.409 124.71 472.272 122.76 473.312 120.42L490.342 125.62C488.002 130.733 484.102 134.98 478.642 138.36C473.269 141.653 466.855 143.3 459.402 143.3ZM547.601 142L527.711 112.62L518.481 121.72V142H501.061V47.1H518.481V104.56L545.911 74.01H564.371L539.021 102.87L566.191 142H547.601ZM601.586 143.3C594.22 143.3 587.85 141.697 582.476 138.49C577.19 135.283 573.073 131.037 570.126 125.75C567.18 120.377 565.706 114.57 565.706 108.33C565.706 101.917 567.136 96.0233 569.996 90.65C572.943 85.19 577.103 80.8567 582.476 77.65C587.85 74.3567 594.263 72.71 601.716 72.71C609.17 72.71 615.54 74.3567 620.826 77.65C626.113 80.8567 630.143 85.1467 632.916 90.52C635.776 95.8067 637.206 101.527 637.206 107.68C637.206 109.933 637.076 111.883 636.816 113.53H584.166C584.6 118.817 586.55 122.977 590.016 126.01C593.57 129.043 597.643 130.56 602.236 130.56C605.703 130.56 608.953 129.737 611.986 128.09C615.106 126.357 617.23 124.103 618.356 121.33L633.306 125.49C630.793 130.69 626.763 134.98 621.216 138.36C615.67 141.653 609.126 143.3 601.586 143.3ZM583.776 102.48H619.396C618.876 97.3667 616.926 93.25 613.546 90.13C610.253 86.9233 606.223 85.32 601.456 85.32C596.776 85.32 592.746 86.9233 589.366 90.13C586.073 93.25 584.21 97.3667 583.776 102.48ZM688.379 88.96C683.092 88.96 678.369 90 674.209 92.08C670.049 94.0733 667.059 96.9767 665.239 100.79V142H647.819V73.88H663.809V88.44C666.149 83.76 669.182 80.0767 672.909 77.39C676.722 74.7033 680.709 73.23 684.869 72.97C686.689 72.97 687.859 73.0133 688.379 73.1V88.96ZM793.314 65.43H763.804V142H745.994V65.43H716.484V49.7H793.314V65.43ZM797.911 155.26C801.117 156.127 803.717 156.56 805.711 156.56C808.051 156.56 809.914 155.563 811.301 153.57C812.774 151.663 814.421 147.807 816.241 142L789.331 73.88H807.401L825.731 124.19L841.851 73.88H858.491L829.891 155.52C828.331 160.2 825.514 164.057 821.441 167.09C817.454 170.21 812.514 171.77 806.621 171.77C803.761 171.77 800.857 171.293 797.911 170.34V155.26ZM908.775 143.3C903.402 143.3 898.722 142.087 894.735 139.66C890.749 137.233 887.629 134.027 885.375 130.04V169.69H867.955V73.88H883.165V85.58C885.679 81.5933 888.929 78.4733 892.915 76.22C896.989 73.88 901.582 72.71 906.695 72.71C912.849 72.71 918.309 74.3133 923.075 77.52C927.842 80.64 931.612 84.8867 934.385 90.26C937.159 95.5467 938.545 101.397 938.545 107.81C938.545 114.483 937.245 120.507 934.645 125.88C932.132 131.167 928.622 135.413 924.115 138.62C919.695 141.74 914.582 143.3 908.775 143.3ZM902.925 128.48C906.479 128.48 909.555 127.527 912.155 125.62C914.842 123.627 916.922 121.07 918.395 117.95C919.955 114.743 920.735 111.363 920.735 107.81C920.735 103.997 919.912 100.573 918.265 97.54C916.619 94.42 914.365 91.9933 911.505 90.26C908.732 88.44 905.525 87.53 901.885 87.53C898.592 87.53 895.299 88.6133 892.005 90.78C888.712 92.9467 886.502 95.6767 885.375 98.97V114.96C886.935 118.773 889.319 121.98 892.525 124.58C895.732 127.18 899.199 128.48 902.925 128.48ZM981.938 143.3C974.571 143.3 968.201 141.697 962.828 138.49C957.541 135.283 953.425 131.037 950.478 125.75C947.531 120.377 946.058 114.57 946.058 108.33C946.058 101.917 947.488 96.0233 950.348 90.65C953.295 85.19 957.455 80.8567 962.828 77.65C968.201 74.3567 974.615 72.71 982.068 72.71C989.521 72.71 995.891 74.3567 1001.18 77.65C1006.46 80.8567 1010.49 85.1467 1013.27 90.52C1016.13 95.8067 1017.56 101.527 1017.56 107.68C1017.56 109.933 1017.43 111.883 1017.17 113.53H964.518C964.951 118.817 966.901 122.977 970.368 126.01C973.921 129.043 977.995 130.56 982.588 130.56C986.055 130.56 989.305 129.737 992.338 128.09C995.458 126.357 997.581 124.103 998.708 121.33L1013.66 125.49C1011.14 130.69 1007.11 134.98 1001.57 138.36C996.021 141.653 989.478 143.3 981.938 143.3ZM964.128 102.48H999.748C999.228 97.3667 997.278 93.25 993.898 90.13C990.605 86.9233 986.575 85.32 981.808 85.32C977.128 85.32 973.098 86.9233 969.718 90.13C966.425 93.25 964.561 97.3667 964.128 102.48ZM1068.73 88.96C1063.44 88.96 1058.72 90 1054.56 92.08C1050.4 94.0733 1047.41 96.9767 1045.59 100.79V142H1028.17V73.88H1044.16V88.44C1046.5 83.76 1049.53 80.0767 1053.26 77.39C1057.07 74.7033 1061.06 73.23 1065.22 72.97C1067.04 72.97 1068.21 73.0133 1068.73 73.1V88.96Z" fill="black"/>
<defs>
<filter id="filter0_d_5_44" x="0" y="0" width="200" height="200" filterUnits="userSpaceOnUse" color-interpolation-filters="sRGB">
<feFlood flood-opacity="0" result="BackgroundImageFix"/>
<feColorMatrix in="SourceAlpha" type="matrix" values="0 0 0 0 0 0 0 0 0 0 0 0 0 0 0 0 0 0 127 0" result="hardAlpha"/>
<feOffset dy="4"/>
<feGaussianBlur stdDeviation="2"/>
<feComposite in2="hardAlpha" operator="out"/>
<feColorMatrix type="matrix" values="0 0 0 0 0 0 0 0 0 1 0 0 0 0 0 0 0 0 0.25 0"/>
<feBlend mode="normal" in2="BackgroundImageFix" result="effect1_dropShadow_5_44"/>
<feBlend mode="normal" in="SourceGraphic" in2="effect1_dropShadow_5_44" result="shape"/>
</filter>
</defs>
</svg>
